<svg width="1000" height="667" viewBox="0 0 1000 667" fill="none" xmlns="http://www.w3.org/2000/svg">
<g clip-path="url(#clip0_3631_217)">
<rect width="1000" height="666.667" fill="white"/>
<path d="M412.119 267.984L382.371 233.668L398.019 214.804C404.189 209.275 458.46 160.837 467.054 158.697C468.228 158.349 477.143 155.804 480.878 158.611C481.365 158.982 481.763 159.447 482.044 159.974C482.325 160.501 482.484 161.079 482.51 161.67C483.609 161.849 484.675 162.184 485.67 162.662C486.963 163.269 488.052 164.199 488.821 165.352C489.59 166.504 490.007 167.834 490.029 169.196C491.889 169.738 496.072 171.216 497.71 173.938C498.212 174.741 498.458 175.665 498.418 176.597C499.844 175.746 502.122 174.149 504.202 172.688C513.353 166.257 525.889 157.459 532.772 160.135C533.516 160.392 534.159 160.858 534.615 161.47C535.071 162.081 535.317 162.81 535.323 163.558C535.527 171.883 510.541 192.185 499.891 199.095C502.263 199.288 504.572 199.924 506.68 200.967C510.077 202.73 512.307 205.629 513.328 209.595C513.703 211.067 513.564 212.214 512.917 213.098C511.666 214.81 508.952 215.107 504.456 215.626C494.18 216.813 472.748 219.283 442.854 243.488L412.119 267.984ZM385.472 233.634L412.44 264.743L441.283 241.794C471.727 217.149 493.632 214.621 504.141 213.406C507.575 213.007 510.287 212.699 510.917 211.837C511.007 211.723 511.267 211.363 510.966 210.171C510.112 206.816 508.33 204.465 505.526 203.015C502.721 201.566 499.288 201.19 495.716 201.338C494.477 201.441 492.621 201.629 490.542 201.908C486.502 202.635 482.53 203.659 478.659 204.973C476.641 205.629 475.89 205.874 475.389 204.898C474.887 203.923 475.898 203.329 476.23 203.13C479.003 201.418 484.994 200.351 489.6 199.706C491.555 199.354 493.533 199.129 495.521 199.033C502.485 195.695 533.11 171.416 532.918 163.655C532.931 163.346 532.833 163.042 532.642 162.791C532.45 162.541 532.174 162.359 531.86 162.274C526.239 160.083 513.359 169.122 505.658 174.542C499.221 179.067 497.649 180.1 496.363 179.244C496.017 179.01 495.492 178.451 495.868 177.298C495.997 176.936 496.043 176.551 496.001 176.169C495.96 175.788 495.83 175.42 495.626 175.09C494.308 172.911 490.076 171.535 488.559 171.193L487.612 170.976V170.052C487.781 164.214 481.869 163.866 481.192 163.844L479.662 163.798L480.085 162.337C480.156 161.985 480.124 161.622 479.997 161.285C479.867 160.948 479.647 160.649 479.354 160.42C477.269 158.851 471.129 159.884 467.744 160.905H467.666C461.054 162.457 416.454 201.418 399.736 216.402L385.472 233.634Z" fill="#171020"/>
<path d="M587.592 424.581C587.316 424.581 587.043 424.52 586.797 424.401C586.551 424.282 586.339 424.108 586.178 423.896C579.341 415.086 576.38 404.004 577.444 390.994C578.278 380.69 581.627 369.141 587.381 356.679C597.154 335.532 610.706 318.79 610.838 318.619L611.019 318.397L624.382 312.628L623.886 314.849C623.627 315.989 624.891 317.736 626.353 319.75C629.061 323.48 632.766 328.593 630.845 335.554C626.789 350.22 618.382 371.235 608.36 391.77C604.045 400.61 599.754 408.655 596.273 414.429C590.428 424.1 588.76 424.403 587.955 424.546C587.836 424.568 587.714 424.581 587.592 424.581ZM612.584 320.235C603.539 331.893 595.84 344.429 589.617 357.632C580.86 376.598 573.491 403.126 587.804 422.11C589.842 420.61 596.217 411.269 606.415 390.303C616.272 370.047 624.545 349.364 628.504 334.956C630.154 329.004 626.939 324.57 624.364 321.016C623.155 319.305 622.026 317.791 621.615 316.313L612.584 320.235Z" fill="#171020"/>
<path d="M654.537 423.074L653.691 422.79C653.624 422.79 646.849 420.506 640.237 417.927C627.049 412.792 626.232 411.234 626.553 409.836C626.915 408.21 629.302 408.056 633.31 408.353C633.503 408.353 633.696 408.353 633.914 408.353C649.543 408.353 672.233 363.156 679.747 345.512L679.885 345.187L688.662 339.613L706.722 356.16L654.537 423.074ZM629.58 410.555C632.524 412.593 643.543 416.929 653.654 420.358L703.507 356.451L688.395 342.586L681.861 346.739C677.049 357.706 671.623 368.427 665.609 378.852C652.863 400.605 641.966 411.297 633.153 410.653C631.965 410.536 630.771 410.506 629.58 410.562V410.555Z" fill="#171020"/>
<path fill-rule="evenodd" clip-rule="evenodd" d="M611.919 441.67C675.788 463.107 712.408 351.514 712.408 351.514L688.654 339.767C688.654 339.767 656.446 422.503 628.704 412.695L611.919 441.67Z" fill="#0C61D6"/>
<path fill-rule="evenodd" clip-rule="evenodd" d="M628.705 412.678C594.972 400.734 644.672 329.826 649.604 323.036L624.401 312.57C624.401 312.57 542.812 418.51 611.919 441.67L628.705 412.678Z" fill="#0C61D6"/>
<path fill-rule="evenodd" clip-rule="evenodd" d="M627.586 379.999C627.586 379.999 612.342 374.96 611.111 384.479C609.878 393.996 638.515 386.772 627.586 379.999Z" fill="white"/>
<path d="M617.656 390.191C616.47 390.206 615.286 390.07 614.137 389.786C611.117 388.98 609.569 386.995 609.907 384.337C609.996 383.239 610.354 382.177 610.953 381.236C611.553 380.293 612.379 379.496 613.364 378.91C618.556 375.863 627.603 378.802 627.985 378.91L628.124 378.956L628.244 379.03C631.871 381.284 631.483 383.594 630.923 384.736C629.346 388.028 622.86 390.191 617.656 390.191ZM619.469 379.801C617.786 379.725 616.112 380.087 614.633 380.85C613.958 381.26 613.396 381.815 612.993 382.469C612.59 383.124 612.356 383.859 612.312 384.615C612.186 385.575 612.312 386.899 614.796 387.59C619.204 388.765 627.405 386.544 628.699 383.822C628.856 383.497 629.302 382.51 627.023 381.037C624.573 380.285 622.02 379.868 619.445 379.801H619.469Z" fill="#171020"/>
<path fill-rule="evenodd" clip-rule="evenodd" d="M626.268 387.24C626.268 387.24 608.651 391.954 614.09 401.54C619.53 411.126 641.089 386.783 626.268 387.24Z" fill="white"/>
<path d="M617.866 404.917C616.857 404.927 615.866 404.663 615.008 404.158C614.151 403.651 613.467 402.925 613.032 402.064C611.659 399.644 611.478 397.277 612.487 395.034C615.166 389.072 625.512 386.241 625.947 386.128L626.093 386.087H626.238C631.043 385.938 632.234 388.244 632.512 389.626C633.485 394.533 626.311 402.52 620.521 404.46C619.669 404.754 618.773 404.908 617.866 404.917ZM626.462 388.371C625.253 388.712 616.79 391.302 614.7 395.931C613.98 397.533 614.131 399.189 615.154 400.992C615.486 401.562 616.495 403.359 619.705 402.286C624.775 400.574 630.813 393.512 630.124 390.047C630.04 389.626 629.798 388.302 626.486 388.382L626.462 388.371Z" fill="#171020"/>
<path fill-rule="evenodd" clip-rule="evenodd" d="M636.212 407.285C636.212 407.285 621.953 414.704 628.009 421.681C634.066 428.661 648.728 404.01 636.212 407.285Z" fill="white"/>
<path d="M630.615 424.072C629.93 424.069 629.254 423.918 628.64 423.629C628.028 423.339 627.493 422.921 627.079 422.407C626.359 421.638 625.836 420.725 625.55 419.735C625.265 418.746 625.226 417.706 625.434 416.699C626.607 410.994 635.256 406.428 635.626 406.263L635.752 406.202L635.885 406.167C639.976 405.093 641.433 406.789 641.929 407.878C643.742 411.833 638.702 420.296 633.915 423.051C632.935 423.671 631.793 424.024 630.615 424.072ZM636.658 408.352C635.655 408.894 628.679 412.826 627.798 417.162C627.663 417.834 627.696 418.528 627.893 419.186C628.089 419.845 628.447 420.45 628.935 420.957C629.303 421.378 630.276 422.503 632.658 421.133C636.996 418.64 640.824 411.245 639.71 408.82C639.384 408.09 638.357 407.93 636.67 408.352H636.658Z" fill="#171020"/>
<path fill-rule="evenodd" clip-rule="evenodd" d="M634.62 404.188C634.679 403.445 634.54 402.7 634.215 402.023C633.889 401.345 633.389 400.756 632.762 400.307C632.133 399.86 631.395 399.566 630.614 399.457C629.836 399.347 629.039 399.423 628.3 399.68C624.274 400.998 617.758 404.331 618.26 412.021C618.846 420.723 633.956 411.599 634.62 404.188Z" fill="white"/>
<path d="M621.734 416.712H621.65C618.924 416.683 617.25 415.001 617.058 412.089C616.507 403.629 623.62 400.004 627.937 398.601C628.883 398.287 629.9 398.203 630.889 398.357C631.88 398.512 632.814 398.896 633.605 399.479C634.374 400.04 634.98 400.773 635.371 401.612C635.763 402.451 635.924 403.37 635.841 404.284C635.292 410.207 626.999 416.712 621.734 416.712ZM629.906 400.563C629.495 400.561 629.086 400.626 628.698 400.758C624.25 402.212 619.028 405.322 619.463 411.946C619.608 414.126 620.719 414.418 621.675 414.429H621.722C625.827 414.429 632.984 408.69 633.401 404.089C633.454 403.554 633.361 403.016 633.133 402.524C632.903 402.034 632.543 401.605 632.089 401.282C631.465 400.821 630.698 400.567 629.906 400.563Z" fill="#171020"/>
<path d="M558.895 481.635L556.925 468.923C556.925 468.923 568.898 413.004 580.574 397.255C592.252 381.505 625.512 389.381 594.838 405.243C594.838 405.243 586.214 409.905 585.609 417.694C585.528 418.867 585.794 420.039 586.378 421.078C588.492 424.918 595.377 435.046 614.18 443.08C610.07 452.129 602.913 476.711 602.508 481.539C602.194 485.458 558.895 481.635 558.895 481.635Z" fill="white"/>
<path d="M590.052 484.437C578.533 484.437 563.083 483.148 558.786 482.771C558.516 482.747 558.261 482.639 558.064 482.463C557.867 482.289 557.738 482.055 557.698 481.8L555.728 469.088C555.704 468.958 555.704 468.824 555.728 468.694C556.223 466.412 567.895 412.353 579.577 396.603C585.121 389.134 595.722 386.332 602.762 387.988C606.179 388.776 608.324 390.573 608.651 392.918C609.036 395.679 607.054 400.239 595.413 406.264C595.354 406.299 587.363 410.727 586.807 417.795C586.73 418.757 586.941 419.719 587.411 420.575C589.544 424.45 596.477 434.27 614.645 442.064C614.934 442.188 615.158 442.415 615.272 442.695C615.385 442.974 615.377 443.286 615.251 443.558C611.14 452.574 604.033 477.162 603.675 481.624C603.651 481.873 603.575 482.112 603.449 482.331C603.323 482.55 603.152 482.742 602.945 482.896C601.543 484.049 596.392 484.437 590.052 484.437ZM559.952 480.58C578.69 482.199 598.835 482.862 601.325 481.23C601.893 475.838 608.578 453.117 612.621 443.685C595.214 435.993 588.046 426.6 585.302 421.631C584.616 420.404 584.305 419.021 584.402 417.636C585.055 409.34 593.859 404.485 594.235 404.279C605.978 398.202 606.409 394.283 606.263 393.221C605.99 391.286 603.325 390.471 602.194 390.207C596.912 388.987 587.019 390.573 581.566 397.916C570.505 412.803 558.937 465.298 558.147 468.95L559.952 480.58Z" fill="#171020"/>
<path d="M466.795 185.43H466.571C465.817 185.426 465.074 185.271 464.389 184.976C463.703 184.681 463.091 184.252 462.594 183.718C462.022 183.132 461.601 182.429 461.363 181.664C461.125 180.899 461.078 180.093 461.223 179.307C462.256 173.031 474.205 166.184 474.888 165.824C479.82 162.874 483.507 161.99 486.155 163.125C487.936 163.89 489.091 165.539 489.478 167.89C489.602 168.655 489.531 169.437 489.272 170.171C489.012 170.905 488.572 171.57 487.986 172.112C484.449 175.433 473.753 185.43 466.795 185.43ZM483.682 164.923C482.172 164.923 479.814 165.567 476.17 167.747H476.138C472.899 169.573 464.329 175.273 463.611 179.633C463.52 180.087 463.546 180.555 463.683 180.999C463.823 181.442 464.071 181.848 464.407 182.183C464.69 182.481 465.037 182.719 465.422 182.882C465.809 183.045 466.226 183.13 466.649 183.131H466.818C470.76 183.131 477.307 178.868 486.28 170.463C486.595 170.175 486.831 169.821 486.971 169.431C487.112 169.04 487.154 168.623 487.091 168.215C486.91 167.131 486.432 165.721 485.152 165.174C484.685 164.993 484.186 164.907 483.682 164.923Z" fill="#171020"/>
<path d="M475.904 193.726H475.68C474.927 193.723 474.183 193.568 473.499 193.273C472.815 192.978 472.205 192.549 471.709 192.014C471.141 191.438 470.708 190.756 470.435 190.012C470.164 189.268 470.061 188.479 470.132 187.695C470.512 183.13 476.29 178.668 479.397 176.254L479.596 176.1C479.928 175.838 480.274 175.587 480.612 175.33C481.313 174.799 481.977 174.303 482.601 173.755C485.157 171.535 487.309 170.331 489.175 170.137C494.218 169.567 498.194 173.789 498.594 176.186C498.714 176.951 498.641 177.733 498.379 178.467C498.12 179.201 497.679 179.866 497.093 180.408C493.559 183.712 482.866 193.726 475.904 193.726ZM483.423 174.582L484.245 175.421C483.549 176.026 482.823 176.562 482.117 177.133C481.785 177.378 481.458 177.624 481.132 177.88L480.933 178.035C478.304 180.077 472.838 184.311 472.537 187.889C472.496 188.368 472.563 188.85 472.732 189.303C472.903 189.756 473.171 190.171 473.523 190.519C473.802 190.821 474.146 191.062 474.534 191.225C474.921 191.389 475.34 191.471 475.765 191.466C479.694 191.575 486.286 187.33 495.39 178.805C495.705 178.518 495.943 178.165 496.084 177.773C496.226 177.383 496.267 176.966 496.206 176.557C495.976 175.17 493.026 171.992 489.466 172.426C488.548 172.528 486.904 173.133 484.245 175.45L483.423 174.582Z" fill="#171020"/>
<path d="M458.419 178.68C457.77 178.677 457.129 178.538 456.545 178.273C455.961 178.007 455.445 177.622 455.04 177.145C454.36 176.458 453.85 175.636 453.547 174.74C453.245 173.844 453.158 172.895 453.294 171.964C454.049 166.492 461.754 161.562 462.104 161.356C468.034 157.813 473.922 156.426 478.261 157.545C480.328 158.075 481.887 159.148 482.654 160.563C483.423 161.978 483.525 162.897 482.123 164.209C481.272 165.008 479.566 165.961 477.409 167.165C475.232 168.309 473.141 169.594 471.153 171.011C470.398 171.581 469.649 172.192 468.905 172.785C465.296 175.695 461.568 178.68 458.419 178.68ZM463.442 163.273C463.133 163.473 456.291 167.912 455.693 172.278C455.603 172.886 455.662 173.505 455.862 174.089C456.063 174.674 456.401 175.207 456.853 175.65C458.757 177.692 462.256 175.159 467.369 171.085C468.118 170.48 468.88 169.875 469.643 169.282C471.723 167.765 473.914 166.388 476.2 165.162C477.686 164.406 479.102 163.532 480.432 162.549C480.577 162.432 480.701 162.293 480.8 162.138C480.8 162.138 480.756 162.007 480.516 161.567C480.194 161.091 479.771 160.681 479.277 160.363C478.784 160.044 478.225 159.823 477.639 159.713C475.905 159.279 471.033 158.726 463.442 163.256V163.273Z" fill="#171020"/>
<path d="M444.915 209.263L443.192 207.66C443.373 207.489 461.421 190.542 477.312 203.512L475.735 205.224C461.53 193.692 445.078 209.098 444.915 209.263Z" fill="#171020"/>
<path d="M318.77 399.281C317.288 399.281 315.84 398.865 314.609 398.089C313.377 397.311 312.417 396.206 311.851 394.914C311.284 393.622 311.136 392.202 311.426 390.83C311.715 389.457 312.429 388.199 313.477 387.209C314.525 386.221 315.86 385.549 317.313 385.276C318.766 385.003 320.271 385.144 321.64 385.681C323.008 386.218 324.177 387.124 324.999 388.288C325.821 389.45 326.26 390.818 326.258 392.216C326.255 394.09 325.465 395.885 324.061 397.211C322.657 398.535 320.755 399.279 318.77 399.281ZM318.77 387.43C317.767 387.43 316.787 387.71 315.953 388.236C315.119 388.761 314.469 389.509 314.085 390.384C313.701 391.258 313.601 392.222 313.796 393.15C313.992 394.079 314.475 394.933 315.184 395.601C315.893 396.271 316.797 396.726 317.781 396.912C318.764 397.096 319.784 397.001 320.71 396.639C321.637 396.277 322.429 395.664 322.986 394.877C323.543 394.088 323.841 393.163 323.841 392.216C323.841 390.946 323.307 389.729 322.356 388.832C321.405 387.933 320.115 387.43 318.77 387.43Z" fill="#3BB6D5"/>
<path d="M701.869 478.64C700.386 478.64 698.938 478.225 697.707 477.448C696.476 476.671 695.516 475.566 694.948 474.274C694.382 472.981 694.234 471.561 694.523 470.189C694.812 468.817 695.526 467.558 696.574 466.568C697.623 465.581 698.958 464.907 700.411 464.636C701.865 464.363 703.369 464.504 704.738 465.04C706.107 465.577 707.275 466.483 708.097 467.647C708.919 468.809 709.358 470.178 709.356 471.576C709.354 473.449 708.563 475.245 707.159 476.57C705.755 477.894 703.853 478.639 701.869 478.64ZM701.869 466.787C700.866 466.787 699.884 467.07 699.05 467.595C698.217 468.122 697.566 468.871 697.182 469.745C696.799 470.62 696.698 471.583 696.895 472.512C697.092 473.44 697.575 474.294 698.283 474.962C698.993 475.633 699.898 476.088 700.883 476.271C701.867 476.455 702.885 476.36 703.814 475.997C704.74 475.635 705.531 475.02 706.087 474.231C706.644 473.444 706.941 472.517 706.939 471.57C706.937 470.302 706.402 469.086 705.452 468.189C704.5 467.293 703.212 466.787 701.869 466.787Z" fill="#3BB6D5"/>
<path d="M713.956 490.406C713.722 490.406 713.494 490.343 713.297 490.222C713.1 490.101 712.945 489.931 712.849 489.728C712.754 489.528 712.723 489.303 712.758 489.086C712.796 488.867 712.9 488.664 713.055 488.499L728.328 472.409C728.435 472.296 728.562 472.205 728.706 472.138C728.85 472.073 729.005 472.034 729.162 472.025C729.322 472.017 729.481 472.038 729.632 472.086C729.782 472.134 729.921 472.212 730.039 472.311C730.159 472.411 730.256 472.532 730.325 472.667C730.395 472.803 730.437 472.95 730.444 473.098C730.454 473.248 730.433 473.399 730.382 473.542C730.328 473.683 730.248 473.815 730.142 473.926L714.869 490.023C714.754 490.144 714.615 490.241 714.455 490.308C714.298 490.372 714.129 490.406 713.956 490.406Z" fill="#0C61D6"/>
<path d="M278.576 443.079C273.33 443.079 268.688 436.38 268.144 435.571C267.973 435.314 267.916 435.002 267.987 434.707C268.058 434.412 268.25 434.154 268.522 433.992C268.794 433.831 269.122 433.777 269.436 433.844C269.749 433.911 270.021 434.093 270.193 434.349C271.517 436.323 275.705 441.323 279.15 440.751C281.671 440.329 283.744 436.876 285.152 430.766C285.261 430.155 286.603 423.313 291.801 421.841C295.772 420.701 300.686 423.109 306.409 428.968C306.522 429.078 306.61 429.206 306.669 429.349C306.728 429.49 306.756 429.642 306.752 429.795C306.748 429.947 306.711 430.097 306.644 430.236C306.577 430.376 306.481 430.5 306.363 430.604C306.244 430.706 306.104 430.786 305.952 430.838C305.8 430.89 305.639 430.912 305.477 430.905C305.316 430.896 305.158 430.857 305.013 430.79C304.868 430.723 304.738 430.63 304.632 430.515C299.664 425.424 295.469 423.183 292.502 424.026C288.688 425.11 287.564 431.102 287.552 431.159C287.554 431.18 287.554 431.202 287.552 431.222C285.871 438.532 283.272 442.383 279.598 442.999C279.26 443.053 278.918 443.079 278.576 443.079Z" fill="#0C61D6"/>
<path d="M343.768 199.763C343.569 199.763 343.374 199.716 343.199 199.628C343.024 199.539 342.875 199.411 342.764 199.255L329.975 181.333C329.821 181.082 329.773 180.786 329.842 180.504C329.911 180.222 330.091 179.975 330.345 179.813C330.599 179.651 330.909 179.587 331.212 179.633C331.515 179.678 331.788 179.831 331.976 180.06L344.765 197.983C344.943 198.233 345.009 198.541 344.947 198.837C344.886 199.133 344.703 199.394 344.439 199.563C344.242 199.694 344.008 199.764 343.768 199.763Z" fill="#3BB6D5"/>
<path d="M327.908 196.836C327.648 196.837 327.396 196.759 327.187 196.613C326.979 196.468 326.825 196.263 326.749 196.029C326.673 195.795 326.679 195.544 326.766 195.313C326.853 195.083 327.016 194.884 327.231 194.748L346.215 182.674C346.481 182.504 346.808 182.442 347.123 182.499C347.438 182.557 347.716 182.731 347.896 182.982C348.075 183.233 348.142 183.541 348.08 183.839C348.019 184.136 347.835 184.399 347.569 184.568L328.585 196.642C328.385 196.769 328.149 196.837 327.908 196.836Z" fill="#3BB6D5"/>
<path d="M748.982 534.576H241.974V536.858H748.982V534.576Z" fill="#171020"/>
<path d="M449.461 384.193L447.23 383.321C447.28 383.206 452.326 371.52 450.971 360.103L453.39 359.851C454.798 371.863 449.679 383.703 449.461 384.193Z" fill="#171020"/>
<path d="M488.185 393.603C488.12 393.124 486.639 381.653 491.437 371.919L493.63 372.879C489.117 382.008 490.566 393.215 490.578 393.328L488.185 393.603Z" fill="#171020"/>
<path d="M488.584 386.681C488.311 385.879 488.214 385.032 488.301 384.193C488.372 381.72 488.83 379.269 489.66 376.924C489.823 376.451 490.989 374.676 490.47 374.071C490.149 373.716 470.856 370.812 470.15 370.601C473.498 374.065 488.735 387.292 488.584 386.681Z" fill="#171020"/>
<path d="M488.603 387.885C487.829 387.885 486.397 386.704 479.657 380.833C475.995 377.643 471.074 373.262 469.261 371.407L466.209 368.297L470.512 369.563C470.833 369.637 473.751 370.133 476.556 370.556C490.875 372.838 490.942 372.907 491.365 373.41C492.277 374.413 491.522 375.879 490.971 376.947C490.887 377.112 490.814 377.244 490.779 377.335C489.988 379.572 489.551 381.91 489.484 384.268V384.582C489.437 385.18 489.514 385.781 489.709 386.351L489.956 387.326L489.129 387.76C488.967 387.842 488.786 387.885 488.603 387.885ZM473.692 372.387C477.584 375.965 483.852 381.409 487.091 384.103C487.172 381.54 487.648 379.002 488.505 376.57C488.599 376.34 488.706 376.115 488.826 375.896C488.922 375.703 489.129 375.326 489.268 374.968C487.012 374.511 480.371 373.449 476.182 372.781L473.692 372.387Z" fill="#171020"/>
<path fill-rule="evenodd" clip-rule="evenodd" d="M602.913 479.644C602.913 479.644 601.053 502.554 594.579 525.782C587.471 551.3 574.796 577.205 552.876 573.541C550.582 573.157 548.319 572.63 546.098 571.961C526.093 566.009 515.934 550.365 510.868 537.823C508.543 532.153 506.938 526.245 506.087 520.22L501.524 533.772L484.546 533.736L457.16 533.673L444.819 533.645L407.769 533.565L360.171 533.463H349.932C349.932 533.463 359.518 498.656 364.481 464.174C366.002 454.1 366.952 443.955 367.327 433.784C367.533 426.497 367.237 419.809 366.276 414.172C366.276 414.172 365.067 411.478 363.145 406.846C359.319 397.773 352.556 381.243 345.962 362.847C342.559 353.363 339.204 343.389 336.291 333.682C329.643 311.191 325.466 290.153 329.147 280.047C331.994 272.234 336.962 264.954 344.946 256.931C355.354 246.462 370.893 234.723 393.541 218.866C395.301 217.634 397.105 216.377 398.95 215.095C398.95 215.095 397.596 249.57 435.662 246.66C435.662 246.66 393.353 281.987 386.167 284.126C386.167 284.126 386.662 284.765 387.539 285.997C391.753 292.058 395.544 298.37 398.889 304.896C403.259 313.307 407.033 321.982 410.186 330.864C415.773 346.484 419.412 362.665 421.022 379.08C421.022 379.08 443.385 384.135 447.618 382.897C447.618 382.897 471.461 402.52 490.904 393.974C493.39 394.007 518.29 402.605 535.16 431.542C543.561 445.955 549.973 465.418 550.626 491.38C550.626 492.071 550.657 492.773 550.669 493.474L551.165 491.477L557.245 467.13C557.245 467.13 562.762 474.781 576.924 478.422C583.573 480.134 592.13 480.922 602.913 479.644Z" fill="#3BB6D5"/>
<path d="M557.009 575.037C555.562 575.033 554.118 574.909 552.692 574.667C550.327 574.277 547.99 573.739 545.701 573.052C525.102 566.923 514.755 550.735 509.707 538.245C507.99 533.98 506.645 529.591 505.683 525.12L502.407 534.912L348.367 534.576L348.76 533.15C348.857 532.801 358.388 498.035 363.266 463.993C364.781 453.967 365.728 443.873 366.1 433.75C366.312 426.231 365.973 419.749 365.085 414.482C364.831 413.912 363.695 411.303 362.002 407.263C358.485 398.921 351.57 382.099 344.795 363.208L344.734 363.024C340.987 352.577 337.76 342.803 335.136 333.98C327.122 306.962 324.728 288.698 328.017 279.682C330.912 271.734 336.019 264.275 344.076 256.156C355.106 245.046 371.558 232.847 392.851 217.943C394.612 216.711 396.415 215.451 398.261 214.166L400.273 212.768L400.189 215.13C400.189 215.273 399.76 229.623 409.629 238.525C415.71 244.014 424.444 246.359 435.619 245.508L439.245 245.235L436.525 247.517C434.887 248.887 398.231 279.47 388.058 284.606L388.608 285.371C392.839 291.47 396.645 297.824 400.001 304.389C404.398 312.844 408.192 321.568 411.358 330.501C416.89 345.941 420.525 361.929 422.196 378.15C430.797 380.063 444.559 382.608 447.303 381.797L447.944 381.609L448.451 382.031C448.687 382.22 471.939 401.067 490.434 392.929L490.687 392.822H490.965C492.778 392.822 499.929 395.337 508.378 400.982C516.138 406.162 527.271 415.571 536.259 430.984C545.133 446.201 550.275 464.329 551.593 484.946L556.742 464.324L558.284 466.481C558.339 466.554 563.724 473.852 577.274 477.322C584.769 479.244 593.351 479.651 602.782 478.531L604.249 478.355L604.123 479.736C604.123 479.964 602.182 503.011 595.751 526.075C591.52 541.229 586.328 553.069 580.285 561.257C573.521 570.416 565.712 575.037 557.009 575.037ZM506.661 514.623L507.266 520.105C508.112 526.03 509.693 531.841 511.975 537.417C516.809 549.452 526.752 565.018 546.425 570.878C548.616 571.531 550.848 572.046 553.109 572.419C574.615 576.019 586.885 548.888 593.401 525.497C598.87 505.863 601.053 486.234 601.572 480.945C592.409 481.886 584.043 481.401 576.615 479.508C566.341 476.877 560.473 472.192 557.879 469.602L551.835 493.726L549.611 502.69L549.442 493.31C549.442 492.671 549.442 492.033 549.406 491.398C548.832 468.488 543.675 448.535 534.09 432.057C517.969 404.404 494.422 395.612 491.098 395.104C487.641 396.552 483.897 397.285 480.117 397.255C464.788 397.255 450.113 386.327 447.273 384.092C441.723 384.844 422.951 380.668 420.733 380.154L419.893 379.961L419.815 379.149C418.218 362.829 414.611 346.739 409.067 331.208C405.934 322.372 402.18 313.746 397.832 305.382C394.512 298.902 390.749 292.632 386.566 286.615C385.713 285.423 385.224 284.79 385.218 284.779L384.226 283.494L385.834 283.02C391.159 281.435 419.077 258.9 432.289 247.946C422.063 248.134 413.885 245.527 407.944 240.157C399.627 232.642 398.079 221.937 397.814 217.304L394.29 219.763C373.105 234.599 356.762 246.724 345.859 257.692C338.037 265.588 333.1 272.772 330.325 280.425C327.201 288.984 329.612 306.802 337.488 333.364C340.111 342.198 343.35 351.99 347.11 362.465L347.176 362.647C353.909 381.42 360.776 398.117 364.275 406.413C366.191 410.978 367.388 413.7 367.4 413.728L367.454 413.848V413.986C368.379 419.411 368.741 426.082 368.524 433.808C368.147 444.019 367.192 454.203 365.665 464.318C361.313 494.56 353.317 525.412 351.474 532.317L500.623 532.642L506.661 514.623Z" fill="#E8E3EA"/>
<path d="M498.381 535.883C498.165 535.881 497.95 535.825 497.764 535.72C497.579 535.616 497.425 535.463 497.321 535.283C497.219 535.103 497.17 534.901 497.178 534.695C497.185 534.49 497.254 534.292 497.372 534.119C504.993 523.102 507.32 481.054 507.345 480.608C507.353 480.458 507.392 480.311 507.459 480.176C507.528 480.04 507.625 479.919 507.741 479.817C507.859 479.717 507.996 479.639 508.148 479.589C508.297 479.539 508.454 479.516 508.614 479.524C508.773 479.531 508.928 479.568 509.072 479.633C509.216 479.696 509.343 479.787 509.452 479.899C509.558 480.01 509.64 480.14 509.693 480.281C509.747 480.422 509.77 480.573 509.762 480.721C509.666 482.474 507.345 523.837 499.396 535.363C499.286 535.523 499.136 535.655 498.959 535.744C498.782 535.835 498.584 535.883 498.381 535.883Z" fill="#171020"/>
<path d="M536.472 515.38C536.407 515.385 536.342 515.385 536.277 515.38C535.961 515.333 535.677 515.168 535.491 514.923C535.302 514.678 535.225 514.373 535.274 514.075C536.604 506.143 548.819 493.835 549.34 493.315C549.562 493.109 549.861 492.992 550.174 492.988C550.486 492.985 550.787 493.096 551.015 493.298C551.244 493.501 551.379 493.777 551.393 494.073C551.409 494.368 551.303 494.656 551.098 494.878C550.978 495.005 538.877 507.192 537.662 514.433C537.615 514.698 537.467 514.938 537.251 515.112C537.032 515.285 536.757 515.38 536.472 515.38Z" fill="#171020"/>
<path d="M544.401 521.041H544.262C543.945 521.006 543.656 520.853 543.457 520.616C543.261 520.38 543.168 520.079 543.204 519.78C544.323 510.651 556.369 465.499 556.882 463.581C556.917 463.432 556.984 463.289 557.077 463.165C557.171 463.039 557.291 462.933 557.431 462.853C557.568 462.773 557.724 462.719 557.883 462.697C558.044 462.673 558.207 462.682 558.367 462.719C558.524 462.758 558.672 462.827 558.799 462.92C558.929 463.013 559.035 463.13 559.116 463.263C559.197 463.397 559.246 463.545 559.265 463.698C559.283 463.85 559.267 464.004 559.222 464.153C559.1 464.62 546.704 511.056 545.605 520.072C545.56 520.343 545.414 520.59 545.194 520.768C544.974 520.946 544.692 521.043 544.401 521.041Z" fill="#171020"/>
<path d="M417.487 389.979C417.233 389.979 416.983 389.902 416.777 389.759C416.57 389.618 416.417 389.418 416.34 389.189C416.262 388.959 416.262 388.712 416.34 388.484C416.419 388.254 416.574 388.055 416.781 387.914C422.789 383.816 421.766 379.121 421.719 378.92C421.646 378.625 421.699 378.315 421.869 378.059C422.04 377.801 422.309 377.617 422.622 377.548C422.934 377.479 423.263 377.531 423.536 377.691C423.81 377.851 424.002 378.107 424.075 378.402C424.136 378.658 425.568 384.735 418.195 389.763C417.988 389.902 417.742 389.979 417.487 389.979Z" fill="#171020"/>
<path d="M380.335 288.458C380.049 288.454 379.773 288.355 379.557 288.177C379.341 288.001 379.198 287.756 379.155 287.49C379.111 287.223 379.17 286.95 379.319 286.72C379.469 286.49 379.7 286.317 379.972 286.231C391.903 282.631 420.964 258.558 434.931 246.985C439.718 243.025 441.864 241.28 442.584 240.829C442.855 240.678 443.177 240.635 443.482 240.706C443.787 240.777 444.053 240.957 444.218 241.209C444.385 241.46 444.442 241.764 444.375 242.054C444.31 242.344 444.125 242.598 443.864 242.763C443.26 243.105 440.147 245.702 436.526 248.703C422.439 260.372 393.124 284.651 380.704 288.406C380.584 288.441 380.46 288.458 380.335 288.458Z" fill="#171020"/>
<path d="M517.409 290.762C517.409 290.762 528.893 339.013 521.537 350.437C521.537 350.437 483.459 369.266 467.562 344.958C451.668 320.651 469.841 290.751 469.841 290.751L517.409 290.762Z" fill="white"/>
<path d="M492.912 358.535C481.155 358.535 472.126 354.123 466.529 345.558C459.88 335.35 458.139 322.528 461.561 308.469C463.095 302.092 465.536 295.941 468.814 290.181L469.164 289.611H518.388L518.604 290.501C519.076 292.485 530.131 339.333 522.587 351.019L522.412 351.286L522.117 351.435C515.363 354.593 508.15 356.784 500.714 357.935C498.133 358.323 495.525 358.522 492.912 358.535ZM470.549 291.904C468.191 296.121 454.434 322.718 468.572 344.361C474.875 354.008 485.537 357.82 500.255 355.698C507.329 354.584 514.199 352.521 520.654 349.569C526.831 339.047 517.91 298.449 516.423 291.904H470.549Z" fill="#171020"/>
<path fill-rule="evenodd" clip-rule="evenodd" d="M476.896 301.137C476.896 301.137 511.293 307.003 519.517 297.205C519.517 297.205 538.495 298.193 537.778 289.257C537.058 280.32 512.054 279.979 512.054 279.979C512.054 279.979 525.405 277.086 520.557 270.592C515.71 264.099 491.74 268.978 491.74 268.978C491.74 268.978 444.131 261.559 446.796 309.799C446.845 310.738 446.831 311.68 446.752 312.617C446.149 320.035 444.111 352.662 453.88 362.003C463.121 370.835 496.242 379.309 513.112 374.431C515.303 373.787 517.316 372.693 519.006 371.228C520.697 369.764 522.023 367.963 522.89 365.957C525.018 361.067 527.604 352.337 524.341 343.356C524.341 343.356 521.385 346.072 510.803 344.496C507.812 344.062 504.749 344.44 501.978 345.586C494.95 348.479 480.974 352.53 475.499 341.917C468.022 327.476 476.896 301.137 476.896 301.137Z" fill="#171020"/>
<path d="M501.119 376.999C483.508 376.999 460.787 370.237 453.021 362.801C443.073 353.295 444.782 321.917 445.545 312.526C445.62 311.637 445.636 310.746 445.592 309.857C444.759 294.775 448.682 283.455 457.259 276.219C470.264 265.241 489.292 267.471 491.709 267.814C495.105 267.14 516.491 263.191 521.549 269.936C523.156 272.088 522.957 273.874 522.505 274.992C521.767 276.817 519.87 278.187 517.905 279.157C525.732 279.853 538.417 282.085 538.985 289.171C539.084 290.111 538.96 291.06 538.622 291.947C538.281 292.837 537.739 293.642 537.029 294.307C532.761 298.421 522.68 298.438 520.068 298.369C511.69 307.111 483.695 303.345 477.759 302.432C476.29 307.237 470.205 329.068 476.55 341.416C481.514 351.019 494.291 347.493 501.463 344.543C504.455 343.314 507.757 342.916 510.978 343.401C520.534 344.81 523.465 342.569 523.488 342.545L524.855 341.29L525.459 343.002C528.904 352.497 526.009 361.747 523.978 366.396C523.048 368.563 521.62 370.505 519.795 372.083C517.97 373.663 515.797 374.838 513.433 375.527C509.425 376.576 505.277 377.072 501.119 376.999ZM485.187 269.725C478.273 269.725 467.104 270.969 458.86 277.937C450.863 284.691 447.213 295.391 447.98 309.741C448.033 310.731 448.017 311.723 447.933 312.708C447.406 319.22 445.254 352.155 454.714 361.21C463.882 369.974 496.606 378.015 512.736 373.347C514.76 372.759 516.619 371.752 518.18 370.402C519.74 369.051 520.961 367.387 521.754 365.534C523.567 361.387 526.1 353.394 523.622 345.074C521.712 345.861 517.808 346.717 510.597 345.644C507.839 345.232 505.013 345.568 502.449 346.613C488.893 352.2 478.666 350.664 474.398 342.402C466.813 327.716 475.378 301.89 475.741 300.777L476.068 299.819L477.112 299.996C477.445 300.053 510.888 305.627 518.575 296.481L518.963 296.019L519.567 296.047C519.681 296.047 531.225 296.619 535.28 292.692C535.748 292.257 536.106 291.73 536.329 291.147C536.549 290.564 536.627 289.94 536.557 289.326C536.037 282.855 518.672 281.195 512.03 281.102L502.093 280.995L511.763 278.878C513.757 278.444 519.179 276.749 520.225 274.181C520.581 273.303 520.357 272.344 519.549 271.26C515.922 266.444 498.393 268.789 491.974 270.118L491.752 270.165L491.522 270.129C489.424 269.849 487.307 269.712 485.187 269.719V269.725Z" fill="#171020"/>
<path fill-rule="evenodd" clip-rule="evenodd" d="M456.416 314.202C456.416 314.202 435.776 308.114 432.167 321.176C428.56 334.238 454.422 332.063 454.422 332.063L454.495 328.315C454.554 324.88 454.929 321.456 455.62 318.083L456.416 314.202Z" fill="white"/>
<path d="M450.428 333.346C445.164 333.346 436.284 332.667 432.477 328.417C430.663 326.408 430.18 323.851 431.002 320.89C431.379 319.356 432.093 317.914 433.1 316.659C434.109 315.403 435.385 314.362 436.847 313.604C444.534 309.575 456.285 312.971 456.793 313.112L457.825 313.421L456.822 318.317C456.142 321.625 455.766 324.984 455.699 328.354L455.614 333.129L454.531 333.222C454.326 333.214 452.72 333.346 450.428 333.346ZM446.196 313.946C443.374 313.946 440.412 314.356 438.001 315.619C436.827 316.226 435.802 317.063 434.998 318.073C434.192 319.083 433.623 320.244 433.328 321.478C432.724 323.76 433.027 325.53 434.308 326.961C438.237 331.343 449.648 331.178 453.221 331.007L453.274 328.307C453.335 324.813 453.721 321.332 454.423 317.901L455.028 315.047C452.145 314.349 449.185 313.974 446.21 313.929L446.196 313.946Z" fill="#171020"/>
<path d="M446.034 326.483C444.166 326.483 441.017 326.226 439.566 324.6C439.184 324.169 438.927 323.655 438.811 323.103C438.697 322.554 438.732 321.984 438.913 321.449C439.07 320.851 439.353 320.289 439.751 319.797C440.146 319.307 440.646 318.898 441.216 318.597C443.985 317.153 447.924 318.248 448.367 318.38L449.393 318.683L448.982 320.697C448.736 321.904 448.601 323.129 448.577 324.36L448.542 326.345L447.46 326.436C447.291 326.442 446.758 326.483 446.034 326.483ZM444.679 320.144C443.889 320.11 443.1 320.266 442.388 320.593C442.103 320.742 441.853 320.946 441.656 321.195C441.46 321.442 441.322 321.724 441.253 322.027C441.177 322.207 441.151 322.403 441.178 322.597C441.206 322.79 441.287 322.972 441.409 323.128C442.128 323.926 444.347 324.212 446.166 324.206C446.197 322.901 446.341 321.601 446.595 320.32C445.963 320.207 445.322 320.148 444.679 320.144Z" fill="#171020"/>
<path d="M503.096 337.169C502.871 337.173 502.651 337.113 502.462 336.998C502.189 336.839 501.994 336.584 501.922 336.291C501.847 335.996 501.9 335.686 502.069 335.429C502.244 335.16 502.425 334.898 502.6 334.637C504.457 331.88 506.063 329.501 504.571 324.798C503.768 322.44 502.757 320.149 501.548 317.951C501.473 317.819 501.428 317.674 501.412 317.526C501.396 317.375 501.412 317.225 501.457 317.082C501.503 316.939 501.579 316.805 501.68 316.688C501.78 316.573 501.904 316.477 502.043 316.406C502.185 316.334 502.338 316.291 502.496 316.276C502.655 316.261 502.814 316.276 502.966 316.319C503.117 316.363 503.259 316.434 503.383 316.529C503.505 316.623 503.607 316.74 503.682 316.874C504.98 319.211 506.059 321.651 506.909 324.165C508.722 329.872 506.655 332.925 504.667 335.886C504.492 336.137 504.317 336.393 504.148 336.657C504.034 336.82 503.876 336.952 503.694 337.043C503.509 337.132 503.304 337.177 503.096 337.169Z" fill="#171020"/>
<path fill-rule="evenodd" clip-rule="evenodd" d="M491.703 308.811C491.347 308.092 490.277 307.737 489.286 307.916C486.54 308.384 480.188 309.763 480.418 312.411C480.642 315.418 493.239 311.909 491.703 308.811Z" fill="#171020"/>
<path d="M482.746 314.695C482.131 314.71 481.519 314.63 480.933 314.461C480.461 314.34 480.04 314.09 479.723 313.741C479.405 313.392 479.208 312.961 479.155 312.504C478.872 309.227 484.353 307.589 489.006 306.797C490.603 306.524 492.18 307.168 492.76 308.327C493.044 308.897 493.335 310.038 492.119 311.316C490.397 313.171 485.857 314.695 482.746 314.695ZM481.584 312.252C482.449 312.777 487.201 312.086 489.757 310.289C490.397 309.832 490.67 309.439 490.597 309.296C490.446 309.166 490.263 309.073 490.064 309.027C489.866 308.98 489.657 308.984 489.46 309.034C484.304 309.918 481.627 311.305 481.584 312.252Z" fill="#171020"/>
<path fill-rule="evenodd" clip-rule="evenodd" d="M517.759 310.613C517.814 310.299 517.765 309.978 517.615 309.692C517.468 309.406 517.228 309.172 516.931 309.022C515.251 308.018 511.2 305.838 509.961 307.31C508.553 309.033 516.98 312.947 517.759 310.613Z" fill="#171020"/>
<path d="M516.345 312.48C513.867 312.48 509.938 310.592 508.911 308.833C508.687 308.501 508.577 308.111 508.595 307.717C508.612 307.324 508.76 306.945 509.014 306.631C510.367 304.988 513.244 305.489 517.578 308.057C518.105 308.338 518.52 308.772 518.76 309.296C519 309.819 519.051 310.402 518.908 310.957C518.752 311.386 518.463 311.761 518.076 312.031C517.688 312.3 517.224 312.45 516.744 312.463C516.619 312.474 516.485 312.48 516.345 312.48ZM511.195 307.955C512.036 308.72 513.037 309.312 514.133 309.695C514.878 310.022 515.692 310.191 516.514 310.192C516.453 310.111 516.375 310.04 516.284 309.986C513.57 308.384 511.848 307.933 511.195 307.955Z" fill="#171020"/>
<path d="M491.343 323.029C491.876 322.969 492.181 321.887 492.023 320.61C491.866 319.332 491.306 318.344 490.773 318.404C490.238 318.463 489.933 319.546 490.09 320.823C490.248 322.101 490.808 323.088 491.343 323.029Z" fill="#171020"/>
<path d="M491.268 324.195C490.059 324.195 489.117 322.933 488.851 320.976C488.596 318.911 489.292 317.428 490.592 317.29C490.959 317.244 491.878 317.29 492.562 318.488C492.893 319.117 493.097 319.799 493.166 320.497C493.264 321.195 493.227 321.906 493.058 322.591C492.682 323.909 491.793 324.143 491.426 324.182L491.268 324.195Z" fill="#171020"/>
<path d="M513.8 320.894C514.335 320.835 514.64 319.752 514.482 318.475C514.325 317.199 513.765 316.211 513.23 316.269C512.697 316.328 512.392 317.411 512.549 318.688C512.707 319.966 513.267 320.953 513.8 320.894Z" fill="#171020"/>
<path d="M513.728 322.077C512.518 322.077 511.576 320.816 511.311 318.854C511.057 316.794 511.751 315.311 513.051 315.168C514.351 315.025 515.384 316.308 515.637 318.38C515.891 320.439 515.197 321.923 513.897 322.066L513.728 322.077Z" fill="#171020"/>
<path fill-rule="evenodd" clip-rule="evenodd" d="M513.692 353.655C514.126 356.416 511.981 358.711 508.989 359.132C505.996 359.556 504.014 358.334 503.55 355.573C503.083 352.81 504.92 348.547 507.906 348.126C510.893 347.703 513.255 350.892 513.692 353.655Z" fill="white"/>
<path d="M507.87 360.354C506.726 360.385 505.599 360.083 504.643 359.487C504.01 359.045 503.483 358.484 503.093 357.838C502.704 357.192 502.462 356.477 502.383 355.738C502.163 353.922 502.515 352.088 503.392 350.46C504.436 348.473 505.99 347.248 507.762 346.995C511.328 346.499 514.325 349.945 514.887 353.484C515.401 356.759 512.893 359.76 509.164 360.263C508.736 360.322 508.303 360.354 507.87 360.354ZM508.474 349.227C508.36 349.217 508.246 349.217 508.13 349.227C507.176 349.359 506.244 350.168 505.567 351.447C504.92 352.66 504.649 354.021 504.788 355.372C504.816 355.799 504.938 356.215 505.146 356.594C505.355 356.973 505.644 357.307 505.996 357.574C506.842 358.039 507.843 358.181 508.795 357.973C511.214 357.637 512.809 355.835 512.482 353.792C512.179 351.817 510.523 349.227 508.462 349.227H508.474Z" fill="#171020"/>
<path d="M520.829 293.434C520.67 293.434 520.517 293.372 520.403 293.266C520.289 293.159 520.226 293.014 520.226 292.862C520.226 292.711 520.289 292.566 520.403 292.459C520.517 292.351 520.67 292.292 520.829 292.292C523.677 292.292 531.449 291.636 533.184 288.937C533.691 288.149 533.65 287.225 533.05 286.129C533.013 286.063 532.987 285.988 532.979 285.912C532.972 285.836 532.979 285.76 533.003 285.688C533.027 285.613 533.066 285.546 533.117 285.487C533.17 285.429 533.233 285.381 533.306 285.346C533.377 285.312 533.455 285.29 533.536 285.285C533.617 285.279 533.699 285.29 533.776 285.314C533.853 285.338 533.921 285.377 533.982 285.428C534.043 285.48 534.093 285.541 534.126 285.61C534.919 287.071 534.948 288.389 534.216 289.531C531.799 293.324 521.284 293.428 520.835 293.434H520.829Z" fill="white"/>
<path d="M543.483 381.13C548.118 381.13 548.124 374.338 543.483 374.338C538.841 374.338 538.847 381.13 543.483 381.13Z" fill="white"/>
<path d="M511.824 276.368C510.335 276.353 508.846 276.253 507.369 276.071C507.21 276.052 507.063 275.972 506.964 275.853C506.866 275.733 506.821 275.579 506.84 275.428C506.86 275.276 506.943 275.139 507.071 275.046C507.198 274.951 507.36 274.91 507.521 274.929C514.664 275.768 516.587 274.546 517.106 273.742C517.809 272.647 516.725 271.117 516.713 271.106C516.621 270.981 516.585 270.827 516.613 270.679C516.64 270.53 516.731 270.397 516.863 270.309C516.992 270.222 517.156 270.189 517.315 270.215C517.472 270.241 517.612 270.326 517.704 270.45C517.771 270.541 519.258 272.589 518.147 274.329C517.276 275.694 515.197 276.368 511.824 276.368Z" fill="white"/>
<path fill-rule="evenodd" clip-rule="evenodd" d="M604.458 106.467C604.458 106.467 579.725 106.467 586.028 131.431C586.028 131.431 593.645 156.903 595.785 156.013C597.925 155.123 636.013 140.88 636.013 140.88C636.013 140.88 631.506 96.4647 604.458 106.467Z" fill="#3D3D3D"/>
<path fill-rule="evenodd" clip-rule="evenodd" d="M604.564 110.469C604.371 114.018 602.999 124.369 593.685 129.904C593.685 129.904 600.46 138.657 613.461 133.567C624.044 129.419 621.832 118.161 621.832 118.161C621.832 118.161 611.074 119.952 605.205 110.326C605.168 110.267 605.111 110.219 605.044 110.192C604.975 110.165 604.9 110.159 604.83 110.175C604.757 110.191 604.694 110.228 604.645 110.281C604.598 110.334 604.57 110.4 604.564 110.469Z" fill="white"/>
<path d="M605.688 135.718C603.309 135.725 600.958 135.238 598.801 134.291C596.645 133.345 594.734 131.962 593.208 130.241L592.82 129.744L593.371 129.419C602.534 123.97 603.79 113.516 603.96 110.441C603.969 110.246 604.046 110.06 604.178 109.91C604.31 109.76 604.489 109.655 604.691 109.611C604.892 109.566 605.102 109.585 605.291 109.663C605.48 109.742 605.635 109.877 605.735 110.047C607.281 112.685 609.635 114.819 612.491 116.167C615.347 117.516 618.566 118.016 621.728 117.602L622.334 117.505L622.442 118.075C622.442 118.19 624.623 129.83 613.708 134.104C611.175 135.139 608.447 135.688 605.688 135.718ZM594.584 130.012C596.193 131.724 602.441 137.248 613.23 133.025C622.08 129.562 621.608 121.014 621.323 118.76C618.961 118.96 610.359 119.091 605.114 111.251C604.727 115.696 602.913 124.723 594.584 130.03V130.012Z" fill="#171020"/>
<path fill-rule="evenodd" clip-rule="evenodd" d="M647.695 145.305C641.88 153.584 632.67 160.546 621.155 164.42C611.607 167.717 601.266 168.391 591.328 166.366C589.792 153.402 596.526 140.723 609.036 135.302C622.569 129.442 638.483 133.944 647.695 145.305Z" fill="#00255E"/>
<path d="M602.496 168.677C598.65 168.68 594.815 168.278 591.06 167.479C576.883 164.449 566.28 156.146 561.94 144.695C558.266 134.994 559.619 124.221 565.755 114.453C571.889 104.684 581.935 97.1063 594.162 92.9923C619.481 84.4674 646.225 93.7968 653.781 113.796C657.673 124.067 655.817 135.81 648.703 145.961C642.52 154.76 632.879 161.71 621.559 165.522C615.443 167.594 608.994 168.661 602.496 168.677ZM613.225 92.0907C607.002 92.1063 600.827 93.1312 594.972 95.1206C583.276 99.0577 573.641 106.327 567.834 115.594C562.024 124.86 560.785 134.852 564.207 143.93C568.251 154.629 578.23 162.4 591.593 165.253C601.303 167.243 611.411 166.582 620.737 163.348C631.575 159.701 640.785 153.077 646.685 144.677C653.376 135.137 655.146 124.136 651.519 114.538C646.202 100.501 630.716 92.0907 613.225 92.0907Z" fill="#171020"/>
<path fill-rule="evenodd" clip-rule="evenodd" d="M737.015 207.661C729.443 210.823 721.138 212.087 712.897 211.33C705.931 210.786 699.17 208.84 693.067 205.624C694.409 201.31 700.525 185.413 717.672 187.039C730.401 188.22 735.207 199.644 737.015 207.661Z" fill="#3BB6D5"/>
<path d="M719.299 187.906C718.583 187.906 717.871 187.835 717.171 187.695C715.159 187.302 713.317 186.354 711.875 184.972C710.435 183.59 709.46 181.835 709.075 179.93C708.691 178.025 708.913 176.055 709.716 174.27C710.516 172.484 711.861 170.963 713.578 169.899C715.297 168.835 717.309 168.276 719.364 168.292C721.417 168.309 723.421 168.9 725.119 169.992C726.818 171.083 728.133 172.626 728.904 174.424C729.673 176.222 729.86 178.195 729.441 180.094C728.957 182.297 727.685 184.276 725.838 185.698C723.992 187.121 721.683 187.9 719.299 187.906ZM719.262 169.441C717.529 169.444 715.834 169.91 714.371 170.786C712.908 171.662 711.735 172.912 710.994 174.39C710.253 175.868 709.969 177.514 710.178 179.138C710.386 180.762 711.077 182.297 712.172 183.565C713.267 184.833 714.719 185.783 716.361 186.303C718.005 186.824 719.769 186.894 721.453 186.506C723.136 186.119 724.668 185.288 725.874 184.112C727.077 182.936 727.903 181.462 728.255 179.86C728.533 178.6 728.507 177.297 728.183 176.047C727.858 174.797 727.243 173.631 726.381 172.633C725.522 171.635 724.434 170.831 723.203 170.279C721.972 169.727 720.627 169.441 719.262 169.441Z" fill="#171020"/>
<path fill-rule="evenodd" clip-rule="evenodd" d="M719.008 171.866C718.084 172.351 713.72 173.475 712.74 173.287C709.93 172.716 706.583 170.873 708.274 165.007C710.087 158.799 712.699 160.899 715.098 163.336C715.535 163.789 716.129 164.082 716.772 164.162C717.415 164.243 718.07 164.106 718.617 163.775C721.034 162.36 725.022 161.601 729.579 167.301C732.736 171.233 728.468 174.879 728.468 174.879C728.468 174.879 727.549 172.853 724.375 171.016C722.261 169.795 720.121 171.284 719.008 171.866Z" fill="#171020"/>
<path d="M717.498 212.664C715.938 212.664 714.369 212.599 712.79 212.47C705.655 211.892 698.73 209.888 692.476 206.593C679.891 199.848 672.748 188.556 673.83 177.144C675.486 159.604 695.642 146.902 718.792 148.865C741.94 150.828 759.408 166.662 757.758 184.197C756.784 194.525 749.218 203.689 737.517 208.733C731.216 211.374 724.391 212.714 717.498 212.664ZM714.125 150.948C694.252 150.948 677.693 162.183 676.259 177.338C675.262 187.866 681.941 198.314 693.692 204.607C699.645 207.744 706.237 209.648 713.032 210.193C721.046 210.928 729.125 209.698 736.488 206.621C747.368 201.948 754.428 193.498 755.323 183.991C756.857 167.706 740.357 152.968 718.55 151.136C717.063 151.011 715.588 150.948 714.125 150.948Z" fill="#171020"/>
<path d="M719.51 193.789L714.276 193.167L714.839 188.962L720.072 189.584L719.51 193.789ZM715.629 192.174L718.465 192.511L718.725 190.577L715.883 190.234L715.629 192.174Z" fill="#171020"/>
<path d="M714.958 208.014L711.515 204.02L715.322 192.123L718.774 192.534L719.334 204.95L714.958 208.014ZM712.856 203.786L715.165 206.451L718.101 204.408L717.605 193.567L716.185 193.395L712.856 203.786Z" fill="#171020"/>
<path fill-rule="evenodd" clip-rule="evenodd" d="M640.007 251.374C634.512 256.269 627.775 259.744 620.443 261.462C614.275 262.992 607.833 263.259 601.549 262.243C601.307 258.159 601.427 242.746 616.688 239.214C628.046 236.589 635.867 245.012 640.007 251.374Z" fill="#007C7C"/>
<path d="M615.208 240.077C612.911 240.073 610.692 239.287 608.962 237.862C607.229 236.437 606.102 234.469 605.785 232.321C605.447 229.964 606.114 227.576 607.638 225.682C609.164 223.788 611.424 222.543 613.921 222.222C616.421 221.893 618.958 222.515 620.974 223.951C622.99 225.386 624.321 227.519 624.673 229.879C624.842 231.048 624.768 232.237 624.451 233.378C624.134 234.519 623.582 235.59 622.826 236.53C622.071 237.469 621.127 238.259 620.048 238.854C618.968 239.449 617.776 239.837 616.537 239.997C616.097 240.049 615.652 240.077 615.208 240.077ZM615.208 223.26C614.828 223.26 614.448 223.284 614.071 223.334C611.941 223.613 610.008 224.663 608.68 226.261C607.353 227.86 606.735 229.883 606.957 231.903C607.178 233.924 608.224 235.784 609.87 237.091C611.516 238.398 613.636 239.051 615.784 238.91C617.929 238.77 619.935 237.848 621.375 236.34C622.815 234.831 623.58 232.853 623.505 230.823C623.43 228.793 622.524 226.869 620.976 225.459C619.428 224.048 617.359 223.26 615.208 223.26Z" fill="#171020"/>
<path fill-rule="evenodd" clip-rule="evenodd" d="M622.206 224.933C616.585 204.505 612.735 215.558 612.735 215.558C605.102 210.217 605.84 227.295 605.84 227.295L622.206 224.933Z" fill="#171020"/>
<path fill-rule="evenodd" clip-rule="evenodd" d="M625.489 227.78C625.507 227.838 625.509 227.9 625.495 227.959C625.479 228.018 625.45 228.073 625.405 228.117C625.361 228.162 625.306 228.195 625.243 228.212C625.182 228.23 625.117 228.232 625.055 228.219C619.379 226.998 606.806 230.136 604.987 231.329C603.464 232.327 603.398 229.046 603.488 227.095C603.506 226.685 603.639 226.287 603.872 225.941C604.106 225.596 604.432 225.314 604.818 225.126C605.246 224.921 605.791 224.681 606.426 224.424C610.529 222.793 618.411 220.613 622.974 222.564C623.316 222.711 623.619 222.926 623.863 223.195C624.105 223.465 624.284 223.781 624.382 224.122L625.489 227.78Z" fill="#171020"/>
<path d="M608.957 263.991C606.406 263.995 603.861 263.787 601.348 263.369C588.317 261.195 578.495 253.531 575.722 243.369C573.648 235.774 575.618 227.695 581.264 220.625C586.909 213.555 595.389 208.448 605.307 206.04C625.857 201.042 646.08 209.652 650.342 225.235C652.857 234.422 649.295 244.498 640.835 252.196C635.198 257.227 628.284 260.802 620.755 262.569C616.902 263.509 612.938 263.986 608.957 263.991ZM617.076 206.896C613.317 206.906 609.575 207.36 605.936 208.248C596.544 210.531 588.48 215.415 583.221 221.994C577.964 228.573 576.198 235.888 578.09 242.805C580.623 252.083 589.707 259.106 601.796 261.121C607.911 262.099 614.177 261.839 620.175 260.356C627.298 258.687 633.843 255.31 639.179 250.553C647.006 243.432 650.318 234.182 648.027 225.806C644.855 214.234 632.022 206.896 617.087 206.896H617.076Z" fill="#171020"/>
<path d="M584.903 420.016C585.497 423.382 586.805 426.601 588.746 429.481C592.166 434.572 596.194 439.273 600.751 443.495L610.785 452.797L614.187 443.872L601.349 436.557C600.09 435.838 598.898 435.021 597.783 434.115L584.903 420.016Z" fill="#171020"/>
<path d="M610.91 453.317L600.538 443.707C595.967 439.469 591.926 434.749 588.492 429.643C586.527 426.73 585.202 423.473 584.6 420.068L584.425 419.069L598.012 433.915C599.106 434.797 600.274 435.594 601.505 436.295L614.554 443.713L610.91 453.317ZM585.387 421.004C586.049 423.971 587.278 426.799 589.013 429.352C592.421 434.424 596.435 439.11 600.974 443.319L610.674 452.307L613.793 443.993L601.167 436.797C599.887 436.073 598.675 435.248 597.54 434.333L585.387 421.004Z" fill="#171020"/>
<path d="M509.037 491.873L508.651 495.616C507.359 507.878 507.157 520.221 508.046 532.516C508.107 533.312 508.238 534.103 508.439 534.879V534.97H494.9C495.13 534.97 496.338 531.546 496.501 531.175C497.052 529.857 497.597 528.533 498.116 527.181C499.164 524.519 500.142 521.843 501.052 519.159C502.865 513.709 503.64 510.462 505.241 504.968C507.019 498.966 508.626 494.742 509.037 491.873Z" fill="#171020"/>
<g opacity="0.25">
<path d="M345.931 366.219L345.805 365.649C354.78 363.822 354.943 351.189 354.236 343.824C353.843 339.518 353.888 335.19 354.369 330.894C354.907 325.907 355.578 319.338 355.886 312.743C356.781 294.392 345.394 286.237 334.387 278.346C333.178 277.479 331.97 276.634 330.791 275.745L331.166 275.294C332.375 276.167 333.541 277.006 334.75 277.89C345.883 285.879 357.397 294.117 356.509 312.771C356.188 319.379 355.523 325.957 354.986 330.949C354.51 335.21 354.467 339.503 354.858 343.772C355.56 351.337 355.366 364.303 345.931 366.219Z" fill="#171020"/>
</g>
<g opacity="0.25">
<path d="M406.621 263.534C390.531 263.534 370.356 256.167 352.157 249.503L351.456 249.245L351.674 248.714L352.375 248.972C375.306 257.353 401.296 266.859 418.195 261.308L418.395 261.85C414.596 263.027 410.617 263.595 406.621 263.534Z" fill="#171020"/>
</g>
<g opacity="0.25">
<path d="M445.46 534.947C443.108 532.853 440.021 529.685 437.033 526.622C435.776 525.331 434.526 524.054 433.348 522.86C427.418 516.887 421.821 499.397 423.768 486.644C424.771 480.043 427.564 475.426 432.054 472.951C442.799 466.971 454.181 476.945 460.002 483.404C464.783 488.71 471.062 492.156 477.68 493.103C482.715 493.829 486.438 492.921 488.735 490.405C494.218 484.414 489.997 471.159 489.944 471.005C488.257 465.082 483.718 458.692 478.919 451.93C473.643 444.511 468.191 436.82 466.258 429.271C464.063 420.66 466.862 413.51 474.899 407.399C480.642 403.018 486.644 401.248 492.743 402.132C504.553 403.844 514.109 415.205 518.732 421.818C522.4 427.028 529.219 430.537 536.102 430.754V431.324C529.032 431.102 522.027 427.496 518.255 422.132C513.66 415.599 504.232 404.381 492.652 402.698C486.723 401.837 480.884 403.571 475.281 407.834C457.807 421.163 468.795 436.636 479.421 451.605C484.257 458.411 488.819 464.835 490.53 470.845C490.705 471.388 494.883 484.538 489.189 490.753C486.741 493.43 482.837 494.399 477.584 493.645C470.821 492.682 464.413 489.167 459.536 483.751C453.836 477.418 442.721 467.65 432.339 473.419C428.01 475.819 425.32 480.266 424.342 486.718C422.419 499.323 427.926 516.579 433.765 522.461C434.972 523.655 436.182 524.938 437.458 526.228C440.432 529.286 443.502 532.448 445.846 534.529L445.46 534.947Z" fill="#171020"/>
</g>
<g opacity="0.25">
<path d="M602.237 494.4C592.771 494.086 580.684 487.279 577.764 477.641L578.369 477.487C581.215 486.886 593.031 493.527 602.278 493.83L602.237 494.4Z" fill="#171020"/>
</g>
<g opacity="0.25">
<path d="M509.835 538.365L509.532 537.868C511.351 536.888 513.078 535.762 514.695 534.507C526.674 524.264 534.568 515.638 534.175 506.776C533.903 500.642 529.545 494.611 520.841 488.339C504.824 476.808 498.116 460.894 501.9 453.271C503.845 449.333 508.415 447.912 514.756 449.277C515.576 449.277 523.779 449.996 535.583 476.934C538.997 484.717 544.232 489.487 550.693 490.788C550.874 490.827 551.043 490.857 551.212 490.879L551.127 491.449C550.938 491.425 550.752 491.392 550.567 491.347C543.876 490.029 538.478 485.122 535.003 477.157C522.963 449.682 514.797 449.853 514.707 449.858H514.663H514.622C508.578 448.557 504.232 449.858 502.407 453.538C498.781 460.814 505.623 476.717 521.173 487.918C530.023 494.292 534.472 500.471 534.743 506.782C535.148 515.861 527.169 524.613 515.063 534.958C513.426 536.232 511.676 537.37 509.835 538.365Z" fill="#171020"/>
</g>
<g opacity="0.25">
<path d="M487.612 534.953C482.636 530.742 479.427 525.252 479.234 520.659C479.145 519.476 479.315 518.288 479.732 517.168C480.146 516.049 480.799 515.02 481.651 514.149C484.589 511.238 485.484 508.836 484.304 507.005C481.887 503.256 471.188 502.748 463.573 504.814C461.457 505.393 459.526 506.463 457.955 507.922C456.383 509.383 455.223 511.19 454.574 513.178C452.422 519.398 454.635 527.176 460.617 534.508L460.142 534.855C454 527.369 451.752 519.404 453.97 513.002C454.649 510.924 455.862 509.038 457.504 507.514C459.146 505.989 461.162 504.872 463.375 504.266C471.359 502.098 482.213 502.679 484.794 506.708C486.131 508.791 485.211 511.422 482.062 514.543C481.262 515.358 480.65 516.322 480.268 517.372C479.885 518.425 479.739 519.539 479.838 520.648C480.019 525.104 483.157 530.429 488.015 534.541L487.612 534.953Z" fill="#171020"/>
</g>
<g opacity="0.25">
<path d="M546.335 573.052L545.731 573.011C545.948 570.055 545.924 567.086 545.659 564.132C544.77 556.39 549.171 539.597 559.451 529.474C565.634 523.392 572.905 520.568 581.041 521.082C583.131 521.212 590.422 521.864 596.151 524.762L595.868 525.263C590.227 522.411 583.047 521.778 580.98 521.652C573.033 521.149 565.925 523.934 559.868 529.868C549.714 539.866 545.364 556.437 546.245 564.071C546.52 567.057 546.549 570.061 546.335 573.052Z" fill="#171020"/>
</g>
<g opacity="0.25">
<path d="M407.921 534.747C406.668 532.391 405.502 527.803 405.866 523.284C406.904 510.679 402.027 499.414 394.26 496.499C387.745 494.058 379.887 497.691 372.175 506.73C365.505 514.793 361.378 524.468 360.268 534.645L359.664 534.593C360.789 524.309 364.962 514.531 371.704 506.383C379.616 497.133 387.709 493.442 394.484 495.98C402.487 498.987 407.528 510.491 406.47 523.369C406.125 527.58 407.207 532.173 408.464 534.53L407.921 534.747Z" fill="#171020"/>
</g>
<g opacity="0.25">
<path d="M363.478 464.282L363.248 463.758C363.584 463.658 363.925 463.576 364.27 463.511C364.596 463.445 364.995 463.352 365.085 463.324C366.663 462.75 368.204 462.093 369.703 461.356C372.882 459.826 379.936 457.264 391.462 457.264C393.275 457.264 395.433 457.264 397.754 457.31C411.05 457.453 433.275 457.693 434.835 453.235C435.258 452.015 434.048 450.422 431.238 448.5C424.16 443.662 420.148 440.288 420.57 437.379C421.054 434.052 426.868 431.673 439.1 427.399C445.75 425.071 449.6 421.692 450.537 417.327C451.994 410.567 446.053 402.423 440.528 397.505C438.914 396.066 437.844 392.843 436.605 389.111C435.718 386.248 434.646 383.441 433.395 380.7L433.946 380.461C435.204 383.224 436.284 386.055 437.179 388.94C438.388 392.598 439.447 395.752 440.945 397.089C446.584 402.11 452.635 410.452 451.129 417.442C450.149 422.008 446.173 425.533 439.313 427.936C428.325 431.776 421.623 434.332 421.18 437.453C420.801 440.071 424.885 443.445 431.607 448.038C434.695 450.155 435.946 451.911 435.421 453.413C433.722 458.263 412.936 458.04 397.76 457.88C395.445 457.88 393.311 457.836 391.474 457.836C380.093 457.836 373.142 460.357 370.011 461.863C368.492 462.611 366.928 463.276 365.327 463.855C365.206 463.9 364.91 463.963 364.439 464.067C364.076 464.158 363.568 464.249 363.478 464.282Z" fill="#171020"/>
</g>
<g opacity="0.25">
<path d="M366.433 433.681L366.101 433.207C374.073 428.244 379.966 422.875 383.629 417.231C387.001 412.032 389.256 406.555 391.431 401.254C393.964 395.097 396.357 389.271 400.159 385.043C410.434 373.631 417.687 371.029 421.121 370.504L421.217 371.076C415.518 371.948 408.011 377.181 400.619 385.426C396.883 389.596 394.508 395.365 391.994 401.471C389.806 406.789 387.545 412.312 384.136 417.533C380.431 423.239 374.478 428.671 366.433 433.681Z" fill="#171020"/>
</g>
<g opacity="0.25">
<path d="M359.869 398.384L359.555 397.894C389.678 380.324 390.307 360.981 387.744 331.208C386.161 312.725 389.104 307.773 393.553 300.276C394.248 299.098 394.973 297.884 395.722 296.538L396.254 296.8C395.505 298.152 394.78 299.373 394.079 300.554C389.684 307.971 386.783 312.851 388.349 331.161C390.923 361.152 390.289 380.638 359.869 398.384Z" fill="#171020"/>
</g>
</g>
<defs>
<clipPath id="clip0_3631_217">
<rect width="1000" height="666.667" fill="white"/>
</clipPath>
</defs>
</svg>
